<svg width="100" height="27" viewBox="0 0 100 27" fill="none" xmlns="http://www.w3.org/2000/svg">
<path d="M0.599766 26V0.619998H12.5878C15.5158 0.619998 17.7718 1.316 19.3558 2.708C20.9638 4.1 21.7678 6.032 21.7678 8.504C21.7678 10.16 21.4078 11.576 20.6878 12.752C19.9678 13.904 18.9238 14.804 17.5558 15.452C16.1878 16.076 14.5558 16.388 12.6598 16.388L12.9838 15.488H14.7838C15.8398 15.488 16.7758 15.776 17.5918 16.352C18.4078 16.928 19.0798 17.732 19.6078 18.764L23.4598 26H16.1878L12.0478 17.9C11.7838 17.372 11.3878 17.012 10.8598 16.82C10.3558 16.628 9.77977 16.532 9.13177 16.532H7.25977V26H0.599766ZM7.25977 11.816H11.4358C12.7318 11.816 13.7158 11.564 14.3878 11.06C15.0598 10.532 15.3958 9.752 15.3958 8.72C15.3958 7.712 15.0598 6.956 14.3878 6.452C13.7158 5.948 12.7318 5.696 11.4358 5.696H7.25977V11.816ZM35.0596 26.396C31.7476 26.396 29.1676 25.544 27.3196 23.84C25.4956 22.136 24.5836 19.796 24.5836 16.82C24.5836 14.972 24.9676 13.328 25.7356 11.888C26.5036 10.448 27.5836 9.332 28.9756 8.54C30.3676 7.724 31.9996 7.316 33.8716 7.316C35.7196 7.316 37.2556 7.724 38.4796 8.54C39.7276 9.332 40.6636 10.436 41.2876 11.852C41.9116 13.244 42.2236 14.864 42.2236 16.712V18.08H29.9476V15.056H37.5076L36.8956 15.56C36.8956 14.192 36.6316 13.184 36.1036 12.536C35.5996 11.864 34.8796 11.528 33.9436 11.528C32.8636 11.528 32.0356 11.936 31.4596 12.752C30.9076 13.544 30.6316 14.744 30.6316 16.352V17C30.6316 18.608 31.0276 19.784 31.8196 20.528C32.6116 21.272 33.7516 21.644 35.2396 21.644C36.1996 21.644 37.0996 21.536 37.9396 21.32C38.8036 21.104 39.6196 20.756 40.3876 20.276L42.0436 24.452C41.1316 25.076 40.0756 25.556 38.8756 25.892C37.6756 26.228 36.4036 26.396 35.0596 26.396ZM51.4309 26V5.984H43.7269V0.619998H65.7949V5.984H58.0909V26H51.4309ZM65.3843 26V12.716C65.3843 11.876 65.3603 11.036 65.3123 10.196C65.2643 9.356 65.1923 8.528 65.0963 7.712H71.2883L71.9723 13.328H71.0003C71.2403 11.96 71.6243 10.832 72.1523 9.944C72.6803 9.056 73.3403 8.396 74.1323 7.964C74.9243 7.532 75.8603 7.316 76.9403 7.316C77.4443 7.316 77.8163 7.34 78.0563 7.388C78.3203 7.412 78.5963 7.484 78.8843 7.604V13.22C78.2843 12.956 77.8043 12.788 77.4443 12.716C77.0843 12.644 76.6163 12.608 76.0403 12.608C75.0563 12.608 74.2523 12.788 73.6283 13.148C73.0043 13.484 72.5483 14.012 72.2603 14.732C71.9963 15.452 71.8643 16.376 71.8643 17.504V26H65.3843ZM89.6455 26.396C87.6055 26.396 85.8415 26.012 84.3535 25.244C82.8655 24.476 81.7135 23.384 80.8975 21.968C80.0815 20.528 79.6735 18.824 79.6735 16.856C79.6735 14.864 80.0815 13.16 80.8975 11.744C81.7135 10.328 82.8655 9.236 84.3535 8.468C85.8415 7.7 87.6055 7.316 89.6455 7.316C91.6615 7.316 93.4135 7.7 94.9015 8.468C96.3895 9.236 97.5415 10.34 98.3575 11.78C99.1735 13.196 99.5815 14.888 99.5815 16.856C99.5815 18.8 99.1735 20.492 98.3575 21.932C97.5415 23.372 96.3895 24.476 94.9015 25.244C93.4135 26.012 91.6615 26.396 89.6455 26.396ZM89.6455 21.644C90.7015 21.644 91.5415 21.272 92.1655 20.528C92.7895 19.76 93.1015 18.536 93.1015 16.856C93.1015 15.176 92.7895 13.964 92.1655 13.22C91.5415 12.452 90.7015 12.068 89.6455 12.068C88.5655 12.068 87.7135 12.452 87.0895 13.22C86.4655 13.964 86.1535 15.176 86.1535 16.856C86.1535 18.536 86.4655 19.76 87.0895 20.528C87.7135 21.272 88.5655 21.644 89.6455 21.644Z" fill="#12132D"/>
</svg>
